# xmcd CD database file
#
# Track frame offsets:
#	150
#	29622
#	70845
#	134122
#	163812
#	203117
#	224337
#
# Disc length: 3354 seconds
#
# Revision: 0
# Processed by: cddbd v1.5.2PL0 Copyright (c) Steve Scherf et al.
# Submitted via: CDex 1.70beta2
#
DISCID=700d1807
DTITLE=beyond a coloured dream - beyond a coloured dream
DYEAR=2000
DGENRE=Jazz
TTITLE0=barbecue with barbie's shoe
TTITLE1=d'avont les enfants
TTITLE2=a frame to fame
TTITLE3=mary is married
TTITLE4=ms. barbie ain't no barbee
TTITLE5=song's for the river
TTITLE6=echoes of the snow hill mountain land
EXTD=YEAR: 2000
EXTT0=
EXTT1=
EXTT2=
EXTT3=
EXTT4=
EXTT5=
EXTT6=
PLAYORDER=
